<mxfile host="app.diagrams.net" modified="2024-07-12T09:48:44.116Z" agent="Mozilla/5.0 (Macintosh; Intel Mac OS X 10_15_7) AppleWebKit/537.36 (KHTML, like Gecko) Chrome/126.0.0.0 Safari/537.36 Edg/126.0.0.0" version="24.6.5" etag="byGP00Hkq_EOXgVzoKcT" type="github">
  <diagram name="第 1 页" id="eta6reaMmOtA2zTRDt5k">
    <mxGraphModel>
      <root>
        <mxCell id="0" />
        <mxCell id="1" parent="0" />
      </root>
    </mxGraphModel>
  </diagram>
</mxfile>
